<?xml version="1.0" standalone="no"?>
<!DOCTYPE svg PUBLIC "-//W3C//DTD SVG 20010904//EN"
 "http://www.w3.org/TR/2001/REC-SVG-20010904/DTD/svg10.dtd">
<svg version="1.0" xmlns="http://www.w3.org/2000/svg"
 width="300.000000pt" height="300.000000pt" viewBox="0 0 300.000000 300.000000"
 preserveAspectRatio="xMidYMid meet">
<metadata>
Created by potrace 1.10, written by Peter Selinger 2001-2011
</metadata>
<g transform="translate(0.000000,300.000000) scale(0.100000,-0.100000)"
fill="#000000" stroke="none">
<path d="M1420 2907 c-3 -2 -34 -7 -70 -10 -36 -3 -90 -11 -120 -17 -30 -6
-64 -13 -76 -16 -99 -20 -336 -124 -411 -180 -17 -13 -35 -24 -38 -24 -26 0
-242 -203 -314 -295 -111 -142 -200 -318 -247 -490 -34 -124 -49 -240 -49
-375 0 -128 7 -186 39 -335 26 -122 103 -301 177 -413 16 -24 29 -46 29 -49 0
-35 329 -363 365 -363 3 0 21 -11 38 -24 33 -25 183 -103 251 -130 78 -32 244
-71 351 -83 328 -37 653 44 944 233 114 75 302 262 374 374 165 257 241 505
241 790 0 282 -78 540 -240 789 -76 116 -262 301 -378 376 -173 113 -348 186
-516 215 -36 6 -76 13 -90 16 -42 7 -255 17 -260 11z m345 -72 c269 -57 533
-200 711 -386 183 -192 320 -457 365 -709 17 -95 18 -383 1 -472 -52 -277
-202 -561 -393 -744 -193 -184 -456 -319 -714 -366 -90 -17 -380 -17 -467 0
-387 73 -721 299 -925 627 -269 433 -269 999 0 1430 188 302 475 512 827 606
155 41 436 48 595 14z"/>
<path d="M1320 2376 c-96 -40 -238 -99 -315 -131 -77 -31 -150 -63 -161 -70
-12 -8 -36 -51 -57 -102 -20 -48 -61 -149 -92 -223 -31 -74 -76 -183 -101
-242 l-44 -108 44 -107 c25 -60 70 -169 101 -243 31 -74 72 -174 92 -222 19
-48 40 -91 47 -97 6 -5 83 -39 171 -76 162 -66 221 -91 397 -165 l97 -40 108
44 c59 25 169 70 243 101 74 31 174 72 222 92 48 19 91 40 97 47 5 6 40 83 76
171 36 88 97 235 136 327 l69 167 -71 173 c-165 401 -201 484 -212 495 -7 6
-84 42 -172 78 -88 36 -235 97 -327 136 -92 38 -169 69 -170 69 -2 -1 -82 -34
-178 -74z m255 -5 c352 -145 558 -231 562 -234 3 -4 172 -408 240 -575 l25
-63 -102 -247 c-56 -136 -116 -279 -132 -318 l-30 -72 -66 -27 c-37 -16 -123
-51 -192 -80 -69 -29 -182 -76 -251 -105 l-127 -52 -73 30 c-41 16 -123 50
-184 75 -288 119 -378 157 -382 160 -3 4 -41 94 -160 382 -25 61 -59 143 -75
183 l-30 72 30 73 c33 80 92 223 176 426 31 74 56 135 56 136 0 2 41 20 345
145 121 50 234 97 250 105 41 19 41 19 120 -14z"/>
<path d="M1295 2249 c-104 -44 -228 -96 -275 -115 -47 -19 -91 -38 -98 -42 -7
-4 -28 -43 -46 -87 -18 -44 -72 -176 -120 -292 l-88 -213 88 -212 c48 -117
102 -249 120 -293 18 -44 39 -83 46 -87 7 -4 56 -25 108 -46 52 -22 179 -74
282 -117 l187 -77 288 117 c158 65 292 122 297 126 4 4 23 42 40 86 18 43 72
174 120 291 l88 212 -88 213 c-48 116 -102 247 -120 290 -36 88 -37 90 -79
105 -16 6 -145 58 -284 116 -140 58 -260 106 -265 105 -6 0 -96 -36 -201 -80z
m178 -129 c-25 -23 -219 -89 -290 -99 -79 -11 -83 -11 -104 10 -17 17 -29 20
-60 16 -25 -3 -42 0 -49 8 -8 10 2 17 47 33 32 11 119 46 193 77 74 31 148 61
163 67 16 6 45 19 65 28 l37 18 3 -75 c2 -42 -1 -79 -5 -83z m73 151 c5 -5 61
-30 124 -56 184 -76 293 -121 328 -135 17 -7 32 -14 32 -17 0 -2 -24 -29 -54
-60 -37 -37 -59 -52 -68 -47 -7 5 -96 43 -198 85 l-185 77 -3 81 c-3 77 2 92
24 72z m-76 -409 c-6 -2 -19 -13 -29 -23 -16 -18 -27 -19 -100 -13 -73 6 -84
10 -91 29 -10 27 -61 49 -90 40 -15 -5 -29 0 -45 15 -30 28 -23 60 14 60 78 0
302 67 336 101 7 7 11 -26 13 -98 2 -71 -1 -109 -8 -111z m90 195 c14 -8 39
-18 55 -24 17 -6 79 -32 140 -57 60 -25 115 -46 122 -46 17 0 16 -15 -2 -30
-9 -7 -25 -10 -41 -6 -17 5 -35 1 -51 -9 -23 -16 -28 -15 -74 5 l-50 21 -50
-31 c-80 -49 -89 -40 -89 86 0 57 3 104 8 104 4 0 18 -6 32 -13z m-607 -76
c-4 -26 0 -42 11 -54 28 -27 7 -190 -38 -297 -20 -47 -36 -91 -36 -97 0 -10
-24 -13 -85 -13 -47 0 -85 2 -85 5 0 2 8 19 18 37 10 18 23 47 29 63 6 17 37
91 68 165 31 74 66 161 77 193 16 45 23 55 33 47 8 -7 11 -24 8 -49z m1161
-68 c27 -65 75 -180 107 -256 l58 -138 -81 3 -80 3 -77 185 c-42 102 -80 191
-85 198 -5 8 11 31 46 67 29 30 55 54 58 55 3 0 27 -53 54 -117z m-1066 88 c8
-4 12 -19 10 -32 -4 -33 -53 -40 -63 -9 -11 36 22 61 53 41z m58 -166 c-4 -20
0 -39 10 -53 15 -21 13 -28 -22 -112 -24 -58 -43 -92 -56 -96 -10 -3 -26 -16
-34 -30 -12 -18 -25 -24 -50 -24 l-34 0 24 48 c54 108 74 186 76 304 0 35 36
42 68 14 18 -16 22 -27 18 -51z m824 42 c0 -7 21 -62 46 -122 25 -61 51 -123
56 -140 6 -16 14 -34 18 -40 4 -5 11 -20 14 -32 11 -34 -20 -30 -54 7 -15 17
-37 30 -48 30 -15 0 -27 20 -56 89 -35 85 -36 91 -21 114 10 16 14 34 9 51 -4
16 -1 32 6 41 15 18 30 19 30 2z m-226 -34 c64 -30 58 -52 -46 -157 -81 -81
-96 -92 -115 -85 -20 7 -23 15 -23 64 0 30 4 55 8 55 20 0 53 43 50 66 -2 20
5 30 37 48 49 30 47 29 89 9z m-490 -9 c3 -9 6 -20 6 -24 0 -15 -37 -31 -54
-24 -16 6 -22 45 -9 57 12 13 51 7 57 -9z m634 -15 c5 -40 -48 -51 -62 -13
-10 26 5 45 33 42 20 -2 27 -9 29 -29z m-314 -15 c10 -25 -5 -44 -35 -44 -16
0 -29 2 -29 4 0 2 -3 11 -6 19 -3 8 2 21 10 30 18 17 52 12 60 -9z m-146 -24
c25 0 35 -5 42 -24 5 -13 18 -27 29 -31 18 -5 21 -15 21 -61 0 -47 -3 -56 -21
-63 -18 -6 -36 7 -115 86 -52 51 -94 96 -94 99 0 4 24 4 53 0 28 -3 67 -6 85
-6z m-74 -123 c81 -82 91 -96 83 -115 -10 -21 -17 -22 -130 -22 -116 0 -121 1
-143 26 l-24 25 36 84 c32 75 44 89 77 94 4 0 50 -41 101 -92z m493 87 c15 -4
32 -29 58 -91 32 -75 35 -89 24 -109 -12 -23 -16 -24 -146 -24 -128 0 -134 1
-142 22 -6 18 6 35 83 114 50 50 93 92 96 93 3 0 15 -2 27 -5z m-260 -196 c29
-27 29 -65 1 -95 -27 -29 -65 -29 -95 -1 -29 27 -29 65 -1 95 27 29 65 29 95
1z m-459 -20 c17 -17 15 -43 -4 -59 -31 -26 -70 25 -44 56 15 18 32 19 48 3z
m883 2 c25 -14 24 -46 -2 -60 -37 -20 -67 28 -37 58 15 15 15 15 39 2z m-106
-56 c-6 -3 -42 -22 -79 -44 -54 -31 -72 -38 -82 -29 -8 7 -29 9 -48 6 -41 -7
-68 16 -56 48 6 18 18 20 136 25 120 5 155 3 129 -6z m-941 -97 c29 -77 55
-122 101 -182 l63 -80 -74 -73 c-40 -41 -78 -71 -83 -68 -5 3 -12 18 -15 32
-4 15 -25 70 -47 123 -22 53 -56 134 -75 181 -19 47 -44 102 -54 123 -11 22
-20 41 -20 43 0 2 37 4 83 4 l82 0 39 -103z m80 78 c9 -14 23 -25 32 -25 9 0
25 -22 39 -53 15 -34 36 -62 59 -77 48 -34 53 -82 13 -127 l-29 -31 -57 76
c-32 43 -67 102 -80 132 -12 30 -31 72 -42 93 l-20 37 34 0 c26 0 39 -6 51
-25z m393 2 c10 -21 5 -29 -52 -83 -50 -48 -67 -59 -80 -51 -11 6 -27 5 -45
-3 -26 -11 -33 -9 -59 11 -16 13 -37 41 -45 61 -15 35 -14 38 7 62 21 25 26
26 143 26 117 0 121 -1 131 -23z m673 17 c0 -3 -8 -24 -18 -47 -10 -23 -27
-61 -36 -84 -15 -33 -30 -48 -78 -73 -53 -29 -62 -31 -88 -20 -16 7 -40 10
-54 6 -31 -8 -51 17 -51 63 0 34 4 38 73 80 67 40 75 42 102 31 38 -16 76 -6
96 25 14 21 54 36 54 19z m174 -76 c-20 -46 -51 -119 -69 -163 -67 -164 -107
-260 -110 -264 -2 -1 -42 36 -89 84 -110 113 -111 126 -11 179 69 36 71 38 99
109 16 40 35 87 43 105 l13 32 80 0 79 0 -35 -82z m-766 -163 c2 -124 0 -156
-10 -152 -97 40 -115 51 -135 82 -19 28 -21 39 -12 59 7 16 8 30 2 41 -15 26
103 145 132 135 19 -7 20 -18 23 -165z m115 105 c-5 -33 -1 -43 21 -63 23 -21
26 -32 26 -88 l0 -64 -52 -20 c-29 -11 -56 -21 -60 -23 -5 -2 -8 66 -8 151 0
150 1 154 23 164 35 16 56 -8 50 -57z m101 14 c9 -8 16 -19 16 -23 0 -16 -38
-41 -53 -35 -22 8 -31 42 -17 59 16 19 35 19 54 -1z m-416 -106 c2 -19 -2 -28
-18 -33 -37 -12 -64 27 -38 53 21 21 53 10 56 -20z m456 -7 c12 -13 15 -27 11
-41 -4 -12 -1 -34 5 -50 11 -25 8 -35 -20 -89 -29 -55 -37 -62 -95 -86 -62
-27 -64 -27 -89 -9 -15 12 -25 29 -26 44 0 22 9 29 78 55 l77 31 3 82 c2 71 5
82 21 82 10 0 26 -9 35 -19z m104 -30 c22 -14 10 -56 -17 -59 -37 -6 -52 26
-25 52 18 18 24 19 42 7z m-583 -45 c15 -1 32 -14 47 -36 18 -27 41 -41 100
-65 87 -34 98 -53 53 -95 l-25 -23 -67 29 c-38 15 -103 53 -145 84 l-77 57 31
30 c18 18 37 29 46 26 8 -3 25 -6 37 -7z m691 -142 c48 -47 85 -86 83 -88 -2
-2 -60 -27 -129 -55 -252 -104 -345 -145 -354 -153 -20 -17 -26 -6 -26 51 0
50 3 61 19 66 11 3 26 19 33 35 10 23 28 35 85 57 73 28 74 28 110 98 52 101
67 100 179 -11z m-747 -2 c42 -32 107 -71 146 -86 55 -21 74 -34 84 -56 7 -16
21 -32 32 -35 16 -5 19 -16 19 -66 0 -33 -3 -58 -7 -56 -5 3 -30 14 -58 26
-27 12 -59 26 -70 31 -11 5 -58 25 -105 44 -132 52 -265 108 -269 112 -6 5
131 143 143 143 4 1 43 -25 85 -57z m325 -88 c21 -20 20 -27 -4 -49 -19 -17
-21 -17 -40 0 -11 10 -20 22 -20 26 0 10 29 39 40 39 5 0 16 -7 24 -16z"/>
</g>
</svg>
